<svg width="199" height="41" viewBox="0 0 199 41" fill="none" xmlns="http://www.w3.org/2000/svg">
<path d="M5.208 6.216V12C5.208 12.112 5.272 12.184 5.4 12.216C6.008 12.296 6.6 12.336 7.176 12.336C8.472 12.336 9.456 12.056 10.128 11.496C10.816 10.92 11.16 10.104 11.16 9.048C11.16 6.92 9.832 5.856 7.176 5.856C6.6 5.856 6.008 5.896 5.4 5.976C5.272 6.008 5.208 6.088 5.208 6.216ZM3.24 21C2.872 21 2.552 20.864 2.28 20.592C2.024 20.32 1.896 20 1.896 19.632V4.968C1.896 4.584 2.024 4.24 2.28 3.936C2.536 3.632 2.856 3.464 3.24 3.432C4.6 3.304 5.912 3.24 7.176 3.24C9.576 3.24 11.376 3.72 12.576 4.68C13.776 5.624 14.376 7 14.376 8.808C14.376 10.808 13.792 12.32 12.624 13.344C11.472 14.368 9.76 14.88 7.488 14.88C6.96 14.88 6.264 14.848 5.4 14.784C5.272 14.784 5.208 14.848 5.208 14.976V19.632C5.208 20 5.072 20.32 4.8 20.592C4.528 20.864 4.208 21 3.84 21H3.24ZM21.3456 10.512C20.5296 10.512 19.8976 10.744 19.4496 11.208C19.0176 11.656 18.7456 12.384 18.6336 13.392C18.6336 13.52 18.6976 13.584 18.8256 13.584H23.5296C23.6576 13.584 23.7216 13.52 23.7216 13.392C23.6576 11.472 22.8656 10.512 21.3456 10.512ZM21.9456 21.24C19.8496 21.24 18.2336 20.696 17.0976 19.608C15.9776 18.504 15.4176 16.888 15.4176 14.76C15.4176 12.648 15.9216 11.04 16.9296 9.936C17.9376 8.832 19.3936 8.28 21.2976 8.28C24.8496 8.28 26.6736 10.296 26.7696 14.328C26.7856 14.712 26.6496 15.032 26.3616 15.288C26.0736 15.544 25.7376 15.672 25.3536 15.672H18.8016C18.6576 15.672 18.6016 15.744 18.6336 15.888C18.7456 16.96 19.0976 17.744 19.6896 18.24C20.2976 18.72 21.1776 18.96 22.3296 18.96C23.0496 18.96 23.8496 18.84 24.7296 18.6C25.0176 18.52 25.2816 18.568 25.5216 18.744C25.7776 18.92 25.9056 19.16 25.9056 19.464C25.9056 19.832 25.7936 20.16 25.5696 20.448C25.3616 20.72 25.0816 20.888 24.7296 20.952C23.8336 21.144 22.9056 21.24 21.9456 21.24ZM29.6768 11.328C29.3568 11.328 29.0848 11.216 28.8608 10.992C28.6368 10.752 28.5248 10.472 28.5248 10.152C28.5248 9.832 28.6368 9.56 28.8608 9.336C29.0848 9.112 29.3568 9 29.6768 9H30.8288C30.9728 9 31.0448 8.928 31.0448 8.784V5.808C31.0448 5.44 31.1728 5.12 31.4288 4.848C31.7008 4.576 32.0208 4.44 32.3888 4.44H32.8688C33.2368 4.44 33.5568 4.576 33.8288 4.848C34.1008 5.12 34.2368 5.44 34.2368 5.808V8.784C34.2368 8.928 34.3088 9 34.4528 9H37.1888C37.5088 9 37.7808 9.112 38.0048 9.336C38.2448 9.56 38.3648 9.832 38.3648 10.152C38.3648 10.472 38.2448 10.752 38.0048 10.992C37.7808 11.216 37.5088 11.328 37.1888 11.328H34.4528C34.3088 11.328 34.2368 11.392 34.2368 11.52V16.368C34.2368 17.408 34.3488 18.08 34.5728 18.384C34.7968 18.688 35.2608 18.84 35.9648 18.84C36.3488 18.84 36.6368 18.824 36.8288 18.792C37.1488 18.76 37.4288 18.832 37.6688 19.008C37.9088 19.184 38.0288 19.424 38.0288 19.728C38.0288 20.08 37.9088 20.4 37.6688 20.688C37.4448 20.96 37.1648 21.112 36.8288 21.144C36.1248 21.208 35.5968 21.24 35.2448 21.24C33.6928 21.24 32.6048 20.912 31.9808 20.256C31.3568 19.584 31.0448 18.392 31.0448 16.68V11.52C31.0448 11.392 30.9728 11.328 30.8288 11.328H29.6768ZM49.1796 11.328C48.8596 11.328 48.5876 11.216 48.3636 10.992C48.1396 10.752 48.0276 10.472 48.0276 10.152C48.0276 9.832 48.1396 9.56 48.3636 9.336C48.5876 9.112 48.8596 9 49.1796 9H50.4516C50.5956 9 50.6676 8.928 50.6676 8.784V8.208C50.6676 6.48 51.0436 5.224 51.7956 4.44C52.5476 3.64 53.7396 3.24 55.3716 3.24C55.9156 3.24 56.3876 3.272 56.7876 3.336C57.1236 3.384 57.3956 3.552 57.6036 3.84C57.8276 4.112 57.9396 4.424 57.9396 4.776C57.9396 5.064 57.8196 5.296 57.5796 5.472C57.3396 5.632 57.0756 5.688 56.7876 5.64C56.4676 5.608 56.2356 5.592 56.0916 5.592C55.2756 5.592 54.7156 5.768 54.4116 6.12C54.1236 6.456 53.9796 7.12 53.9796 8.112V8.784C53.9796 8.928 54.0516 9 54.1956 9H56.5476C56.8676 9 57.1396 9.112 57.3636 9.336C57.5876 9.56 57.6996 9.832 57.6996 10.152C57.6996 10.472 57.5876 10.752 57.3636 10.992C57.1396 11.216 56.8676 11.328 56.5476 11.328H54.1956C54.0516 11.328 53.9796 11.392 53.9796 11.52V19.632C53.9796 20 53.8436 20.32 53.5716 20.592C53.2996 20.864 52.9796 21 52.6116 21H52.0116C51.6436 21 51.3236 20.864 51.0516 20.592C50.7956 20.32 50.6676 20 50.6676 19.632V11.52C50.6676 11.392 50.5956 11.328 50.4516 11.328H49.1796ZM67.5234 11.616C67.0594 10.944 66.3554 10.608 65.4114 10.608C64.4674 10.608 63.7554 10.944 63.2754 11.616C62.8114 12.272 62.5794 13.32 62.5794 14.76C62.5794 16.2 62.8114 17.256 63.2754 17.928C63.7554 18.584 64.4674 18.912 65.4114 18.912C66.3554 18.912 67.0594 18.584 67.5234 17.928C68.0034 17.256 68.2434 16.2 68.2434 14.76C68.2434 13.32 68.0034 12.272 67.5234 11.616ZM69.8754 19.56C68.8194 20.68 67.3314 21.24 65.4114 21.24C63.4914 21.24 61.9954 20.68 60.9234 19.56C59.8674 18.424 59.3394 16.824 59.3394 14.76C59.3394 12.696 59.8674 11.104 60.9234 9.984C61.9954 8.848 63.4914 8.28 65.4114 8.28C67.3314 8.28 68.8194 8.848 69.8754 9.984C70.9474 11.104 71.4834 12.696 71.4834 14.76C71.4834 16.824 70.9474 18.424 69.8754 19.56ZM75.3287 21C74.9607 21 74.6407 20.864 74.3687 20.592C74.0967 20.32 73.9607 20 73.9607 19.632V9.888C73.9607 9.52 74.0967 9.2 74.3687 8.928C74.6407 8.656 74.9607 8.52 75.3287 8.52H75.8087C76.1767 8.52 76.4967 8.656 76.7687 8.928C77.0407 9.2 77.1767 9.52 77.1767 9.888V10.896C77.1767 10.912 77.1847 10.92 77.2007 10.92C77.2327 10.92 77.2487 10.912 77.2487 10.896C77.7127 10.256 78.3207 9.736 79.0727 9.336C79.8247 8.92 80.6487 8.664 81.5447 8.568C81.8807 8.536 82.1687 8.648 82.4087 8.904C82.6487 9.144 82.7687 9.432 82.7687 9.768C82.7687 10.104 82.6487 10.392 82.4087 10.632C82.1687 10.872 81.8807 11.008 81.5447 11.04C78.7127 11.264 77.2967 12.704 77.2967 15.36V19.632C77.2967 20 77.1607 20.32 76.8887 20.592C76.6167 20.864 76.2967 21 75.9287 21H75.3287ZM96.5334 19.704L91.5654 4.776C91.4534 4.456 91.4934 4.16 91.6854 3.888C91.8774 3.616 92.1414 3.48 92.4774 3.48H93.3414C93.7414 3.48 94.1094 3.608 94.4454 3.864C94.7814 4.104 94.9974 4.416 95.0934 4.8L98.7654 17.688C98.7654 17.704 98.7734 17.712 98.7894 17.712C98.8054 17.712 98.8134 17.704 98.8134 17.688L102.533 4.776C102.645 4.392 102.861 4.08 103.181 3.84C103.517 3.6 103.885 3.48 104.285 3.48H105.053C105.389 3.48 105.653 3.616 105.845 3.888C106.037 4.16 106.077 4.456 105.965 4.776L100.997 19.704C100.869 20.088 100.637 20.4 100.301 20.64C99.9814 20.88 99.6134 21 99.1974 21H98.3334C97.9334 21 97.5654 20.88 97.2294 20.64C96.9094 20.4 96.6774 20.088 96.5334 19.704ZM111.51 10.512C110.694 10.512 110.062 10.744 109.614 11.208C109.182 11.656 108.91 12.384 108.798 13.392C108.798 13.52 108.862 13.584 108.99 13.584H113.694C113.822 13.584 113.886 13.52 113.886 13.392C113.822 11.472 113.03 10.512 111.51 10.512ZM112.11 21.24C110.014 21.24 108.398 20.696 107.262 19.608C106.142 18.504 105.582 16.888 105.582 14.76C105.582 12.648 106.086 11.04 107.094 9.936C108.102 8.832 109.558 8.28 111.462 8.28C115.014 8.28 116.838 10.296 116.934 14.328C116.95 14.712 116.814 15.032 116.526 15.288C116.238 15.544 115.902 15.672 115.518 15.672H108.966C108.822 15.672 108.766 15.744 108.798 15.888C108.91 16.96 109.262 17.744 109.854 18.24C110.462 18.72 111.342 18.96 112.494 18.96C113.214 18.96 114.014 18.84 114.894 18.6C115.182 18.52 115.446 18.568 115.686 18.744C115.942 18.92 116.07 19.16 116.07 19.464C116.07 19.832 115.958 20.16 115.734 20.448C115.526 20.72 115.246 20.888 114.894 20.952C113.998 21.144 113.07 21.24 112.11 21.24ZM119.841 11.328C119.521 11.328 119.249 11.216 119.025 10.992C118.801 10.752 118.689 10.472 118.689 10.152C118.689 9.832 118.801 9.56 119.025 9.336C119.249 9.112 119.521 9 119.841 9H120.993C121.137 9 121.209 8.928 121.209 8.784V5.808C121.209 5.44 121.337 5.12 121.593 4.848C121.865 4.576 122.185 4.44 122.553 4.44H123.033C123.401 4.44 123.721 4.576 123.993 4.848C124.265 5.12 124.401 5.44 124.401 5.808V8.784C124.401 8.928 124.473 9 124.617 9H127.353C127.673 9 127.945 9.112 128.169 9.336C128.409 9.56 128.529 9.832 128.529 10.152C128.529 10.472 128.409 10.752 128.169 10.992C127.945 11.216 127.673 11.328 127.353 11.328H124.617C124.473 11.328 124.401 11.392 124.401 11.52V16.368C124.401 17.408 124.513 18.08 124.737 18.384C124.961 18.688 125.425 18.84 126.129 18.84C126.513 18.84 126.801 18.824 126.993 18.792C127.313 18.76 127.593 18.832 127.833 19.008C128.073 19.184 128.193 19.424 128.193 19.728C128.193 20.08 128.073 20.4 127.833 20.688C127.609 20.96 127.329 21.112 126.993 21.144C126.289 21.208 125.761 21.24 125.409 21.24C123.857 21.24 122.769 20.912 122.145 20.256C121.521 19.584 121.209 18.392 121.209 16.68V11.52C121.209 11.392 121.137 11.328 120.993 11.328H119.841Z" fill="black"/>
<path d="M2.47 32.03L0.36 28.2C0.3 28.0933 0.303333 27.9833 0.37 27.87C0.436667 27.7567 0.533333 27.7 0.66 27.7H1.14C1.31333 27.7 1.47333 27.7467 1.62 27.84C1.76667 27.9333 1.87667 28.0567 1.95 28.21L3.25 30.96C3.25 30.9667 3.25333 30.97 3.26 30.97C3.26667 30.97 3.27 30.9667 3.27 30.96L4.57 28.21C4.64333 28.0567 4.75333 27.9333 4.9 27.84C5.04667 27.7467 5.20667 27.7 5.38 27.7H5.82C5.94667 27.7 6.04333 27.7567 6.11 27.87C6.17667 27.9833 6.18 28.0933 6.12 28.2L4.01 32.03C3.97667 32.0833 3.96 32.1367 3.96 32.19V34.43C3.96 34.5833 3.90333 34.7167 3.79 34.83C3.68333 34.9433 3.55333 35 3.4 35H3.08C2.92667 35 2.79333 34.9433 2.68 34.83C2.57333 34.7167 2.52 34.5833 2.52 34.43V32.19C2.52 32.1367 2.50333 32.0833 2.47 32.03ZM8.96484 31.09C8.77151 30.81 8.47818 30.67 8.08484 30.67C7.69151 30.67 7.39484 30.81 7.19484 31.09C7.00151 31.3633 6.90484 31.8 6.90484 32.4C6.90484 33 7.00151 33.44 7.19484 33.72C7.39484 33.9933 7.69151 34.13 8.08484 34.13C8.47818 34.13 8.77151 33.9933 8.96484 33.72C9.16484 33.44 9.26484 33 9.26484 32.4C9.26484 31.8 9.16484 31.3633 8.96484 31.09ZM9.94484 34.4C9.50484 34.8667 8.88484 35.1 8.08484 35.1C7.28484 35.1 6.66151 34.8667 6.21484 34.4C5.77484 33.9267 5.55484 33.26 5.55484 32.4C5.55484 31.54 5.77484 30.8767 6.21484 30.41C6.66151 29.9367 7.28484 29.7 8.08484 29.7C8.88484 29.7 9.50484 29.9367 9.94484 30.41C10.3915 30.8767 10.6148 31.54 10.6148 32.4C10.6148 33.26 10.3915 33.9267 9.94484 34.4ZM13.277 35.1C12.6904 35.1 12.2637 34.94 11.997 34.62C11.7304 34.2933 11.597 33.7433 11.597 32.97V30.37C11.597 30.2167 11.6537 30.0833 11.767 29.97C11.8804 29.8567 12.0137 29.8 12.167 29.8H12.327C12.4804 29.8 12.6137 29.8567 12.727 29.97C12.8404 30.0833 12.897 30.2167 12.897 30.37V32.83C12.897 33.2967 12.9604 33.62 13.087 33.8C13.2137 33.98 13.427 34.07 13.727 34.07C14.0004 34.07 14.2537 33.9533 14.487 33.72C14.727 33.4867 14.847 33.2367 14.847 32.97V30.37C14.847 30.2167 14.9037 30.0833 15.017 29.97C15.1304 29.8567 15.2637 29.8 15.417 29.8H15.617C15.7704 29.8 15.9004 29.8567 16.007 29.97C16.1204 30.0833 16.177 30.2167 16.177 30.37V34.43C16.177 34.5833 16.1204 34.7167 16.007 34.83C15.9004 34.9433 15.7704 35 15.617 35H15.487C15.327 35 15.1904 34.9467 15.077 34.84C14.9704 34.7267 14.9137 34.59 14.907 34.43L14.897 34.36C14.897 34.3533 14.8937 34.35 14.887 34.35C14.8804 34.35 14.8737 34.3533 14.867 34.36C14.4137 34.8533 13.8837 35.1 13.277 35.1ZM18.1252 35C17.9719 35 17.8386 34.9433 17.7252 34.83C17.6119 34.7167 17.5552 34.5833 17.5552 34.43V30.37C17.5552 30.2167 17.6119 30.0833 17.7252 29.97C17.8386 29.8567 17.9719 29.8 18.1252 29.8H18.3252C18.4786 29.8 18.6119 29.8567 18.7252 29.97C18.8386 30.0833 18.8952 30.2167 18.8952 30.37V30.79C18.8952 30.7967 18.8986 30.8 18.9052 30.8C18.9186 30.8 18.9252 30.7967 18.9252 30.79C19.1186 30.5233 19.3719 30.3067 19.6852 30.14C19.9986 29.9667 20.3419 29.86 20.7152 29.82C20.8552 29.8067 20.9752 29.8533 21.0752 29.96C21.1752 30.06 21.2252 30.18 21.2252 30.32C21.2252 30.46 21.1752 30.58 21.0752 30.68C20.9752 30.78 20.8552 30.8367 20.7152 30.85C19.5352 30.9433 18.9452 31.5433 18.9452 32.65V34.43C18.9452 34.5833 18.8886 34.7167 18.7752 34.83C18.6619 34.9433 18.5286 35 18.3752 35H18.1252ZM28.3105 31.09C28.1172 30.81 27.8239 30.67 27.4305 30.67C27.0372 30.67 26.7405 30.81 26.5405 31.09C26.3472 31.3633 26.2505 31.8 26.2505 32.4C26.2505 33 26.3472 33.44 26.5405 33.72C26.7405 33.9933 27.0372 34.13 27.4305 34.13C27.8239 34.13 28.1172 33.9933 28.3105 33.72C28.5105 33.44 28.6105 33 28.6105 32.4C28.6105 31.8 28.5105 31.3633 28.3105 31.09ZM29.2905 34.4C28.8505 34.8667 28.2305 35.1 27.4305 35.1C26.6305 35.1 26.0072 34.8667 25.5605 34.4C25.1205 33.9267 24.9005 33.26 24.9005 32.4C24.9005 31.54 25.1205 30.8767 25.5605 30.41C26.0072 29.9367 26.6305 29.7 27.4305 29.7C28.2305 29.7 28.8505 29.9367 29.2905 30.41C29.7372 30.8767 29.9605 31.54 29.9605 32.4C29.9605 33.26 29.7372 33.9267 29.2905 34.4ZM31.5627 35C31.4094 35 31.2761 34.9433 31.1627 34.83C31.0494 34.7167 30.9927 34.5833 30.9927 34.43V30.37C30.9927 30.2167 31.0494 30.0833 31.1627 29.97C31.2761 29.8567 31.4094 29.8 31.5627 29.8H31.6927C31.8527 29.8 31.9861 29.8567 32.0927 29.97C32.2061 30.0767 32.2661 30.21 32.2727 30.37V30.44C32.2727 30.4467 32.2761 30.45 32.2827 30.45C32.2894 30.45 32.2961 30.4467 32.3027 30.44C32.7561 29.9467 33.2861 29.7 33.8927 29.7C34.4994 29.7 34.9394 29.8733 35.2127 30.22C35.4927 30.56 35.6327 31.13 35.6327 31.93V34.43C35.6327 34.5833 35.5761 34.7167 35.4627 34.83C35.3494 34.9433 35.2161 35 35.0627 35H34.8927C34.7394 35 34.6061 34.9433 34.4927 34.83C34.3861 34.7167 34.3327 34.5833 34.3327 34.43V32.03C34.3327 31.53 34.2661 31.19 34.1327 31.01C34.0061 30.8233 33.7761 30.73 33.4427 30.73C33.1694 30.73 32.9161 30.8467 32.6827 31.08C32.4494 31.3133 32.3327 31.5633 32.3327 31.83V34.43C32.3327 34.5833 32.2761 34.7167 32.1627 34.83C32.0494 34.9433 31.9161 35 31.7627 35H31.5627ZM39.0795 30.63C38.7395 30.63 38.4762 30.7267 38.2895 30.92C38.1095 31.1067 37.9962 31.41 37.9495 31.83C37.9495 31.8833 37.9762 31.91 38.0295 31.91H39.9895C40.0429 31.91 40.0695 31.8833 40.0695 31.83C40.0429 31.03 39.7129 30.63 39.0795 30.63ZM39.3295 35.1C38.4562 35.1 37.7829 34.8733 37.3095 34.42C36.8429 33.96 36.6095 33.2867 36.6095 32.4C36.6095 31.52 36.8195 30.85 37.2395 30.39C37.6595 29.93 38.2662 29.7 39.0595 29.7C40.5395 29.7 41.2995 30.54 41.3395 32.22C41.3462 32.38 41.2895 32.5133 41.1695 32.62C41.0495 32.7267 40.9095 32.78 40.7495 32.78H38.0195C37.9595 32.78 37.9362 32.81 37.9495 32.87C37.9962 33.3167 38.1429 33.6433 38.3895 33.85C38.6429 34.05 39.0095 34.15 39.4895 34.15C39.7895 34.15 40.1229 34.1 40.4895 34C40.6095 33.9667 40.7195 33.9867 40.8195 34.06C40.9262 34.1333 40.9795 34.2333 40.9795 34.36C40.9795 34.5133 40.9329 34.65 40.8395 34.77C40.7529 34.8833 40.6362 34.9533 40.4895 34.98C40.1162 35.06 39.7295 35.1 39.3295 35.1ZM43.1062 32.63C42.9595 32.63 42.8328 32.58 42.7262 32.48C42.6195 32.3733 42.5662 32.2467 42.5662 32.1C42.5662 31.9533 42.6195 31.83 42.7262 31.73C42.8328 31.6233 42.9595 31.57 43.1062 31.57H45.3662C45.5128 31.57 45.6395 31.6233 45.7462 31.73C45.8528 31.83 45.9062 31.9533 45.9062 32.1C45.9062 32.2467 45.8528 32.3733 45.7462 32.48C45.6395 32.58 45.5128 32.63 45.3662 32.63H43.1062ZM49.0327 32.9C48.3327 32.7467 47.8327 32.5367 47.5327 32.27C47.2394 32.0033 47.0927 31.6567 47.0927 31.23C47.0927 30.75 47.2694 30.3767 47.6227 30.11C47.9827 29.8367 48.5127 29.7 49.2127 29.7C49.6527 29.7 50.0894 29.74 50.5227 29.82C50.6694 29.8467 50.7861 29.92 50.8727 30.04C50.9661 30.1533 51.0127 30.2867 51.0127 30.44C51.0127 30.5667 50.9627 30.67 50.8627 30.75C50.7627 30.8233 50.6494 30.8433 50.5227 30.81C50.1494 30.7167 49.7561 30.67 49.3427 30.67C48.7427 30.67 48.4427 30.8367 48.4427 31.17C48.4427 31.33 48.4994 31.4633 48.6127 31.57C48.7261 31.6767 48.9194 31.76 49.1927 31.82C49.9594 31.9733 50.4827 32.18 50.7627 32.44C51.0494 32.7 51.1927 33.08 51.1927 33.58C51.1927 34.06 51.0127 34.4333 50.6527 34.7C50.2927 34.9667 49.7694 35.1 49.0827 35.1C48.6361 35.1 48.1794 35.0467 47.7127 34.94C47.5661 34.9067 47.4461 34.83 47.3527 34.71C47.2594 34.5833 47.2127 34.44 47.2127 34.28C47.2127 34.1533 47.2627 34.0567 47.3627 33.99C47.4694 33.9233 47.5827 33.9067 47.7027 33.94C48.1361 34.06 48.5461 34.12 48.9327 34.12C49.5394 34.12 49.8427 33.94 49.8427 33.58C49.8427 33.4067 49.7827 33.27 49.6627 33.17C49.5494 33.07 49.3394 32.98 49.0327 32.9ZM55.4785 31.09C55.2852 30.81 54.9918 30.67 54.5985 30.67C54.2052 30.67 53.9085 30.81 53.7085 31.09C53.5152 31.3633 53.4185 31.8 53.4185 32.4C53.4185 33 53.5152 33.44 53.7085 33.72C53.9085 33.9933 54.2052 34.13 54.5985 34.13C54.9918 34.13 55.2852 33.9933 55.4785 33.72C55.6785 33.44 55.7785 33 55.7785 32.4C55.7785 31.8 55.6785 31.3633 55.4785 31.09ZM56.4585 34.4C56.0185 34.8667 55.3985 35.1 54.5985 35.1C53.7985 35.1 53.1752 34.8667 52.7285 34.4C52.2885 33.9267 52.0685 33.26 52.0685 32.4C52.0685 31.54 52.2885 30.8767 52.7285 30.41C53.1752 29.9367 53.7985 29.7 54.5985 29.7C55.3985 29.7 56.0185 29.9367 56.4585 30.41C56.9052 30.8767 57.1285 31.54 57.1285 32.4C57.1285 33.26 56.9052 33.9267 56.4585 34.4ZM59.0307 35C58.8774 35 58.744 34.9433 58.6307 34.83C58.5174 34.7167 58.4607 34.5833 58.4607 34.43V28.07C58.4607 27.9167 58.5174 27.7833 58.6307 27.67C58.744 27.5567 58.8774 27.5 59.0307 27.5H59.2907C59.444 27.5 59.5774 27.5567 59.6907 27.67C59.804 27.7833 59.8607 27.9167 59.8607 28.07V34.43C59.8607 34.5833 59.804 34.7167 59.6907 34.83C59.5774 34.9433 59.444 35 59.2907 35H59.0307ZM63.1696 35.1C62.5829 35.1 62.1563 34.94 61.8896 34.62C61.6229 34.2933 61.4896 33.7433 61.4896 32.97V30.37C61.4896 30.2167 61.5463 30.0833 61.6596 29.97C61.7729 29.8567 61.9063 29.8 62.0596 29.8H62.2196C62.3729 29.8 62.5063 29.8567 62.6196 29.97C62.7329 30.0833 62.7896 30.2167 62.7896 30.37V32.83C62.7896 33.2967 62.8529 33.62 62.9796 33.8C63.1063 33.98 63.3196 34.07 63.6196 34.07C63.8929 34.07 64.1463 33.9533 64.3796 33.72C64.6196 33.4867 64.7396 33.2367 64.7396 32.97V30.37C64.7396 30.2167 64.7963 30.0833 64.9096 29.97C65.0229 29.8567 65.1563 29.8 65.3096 29.8H65.5096C65.6629 29.8 65.7929 29.8567 65.8996 29.97C66.0129 30.0833 66.0696 30.2167 66.0696 30.37V34.43C66.0696 34.5833 66.0129 34.7167 65.8996 34.83C65.7929 34.9433 65.6629 35 65.5096 35H65.3796C65.2196 35 65.0829 34.9467 64.9696 34.84C64.8629 34.7267 64.8063 34.59 64.7996 34.43L64.7896 34.36C64.7896 34.3533 64.7863 34.35 64.7796 34.35C64.7729 34.35 64.7663 34.3533 64.7596 34.36C64.3063 34.8533 63.7763 35.1 63.1696 35.1ZM67.6778 30.97C67.5445 30.97 67.4311 30.9233 67.3378 30.83C67.2445 30.73 67.1978 30.6133 67.1978 30.48C67.1978 30.3467 67.2445 30.2333 67.3378 30.14C67.4311 30.0467 67.5445 30 67.6778 30H68.1578C68.2178 30 68.2478 29.97 68.2478 29.91V28.67C68.2478 28.5167 68.3011 28.3833 68.4078 28.27C68.5211 28.1567 68.6545 28.1 68.8078 28.1H69.0078C69.1611 28.1 69.2945 28.1567 69.4078 28.27C69.5211 28.3833 69.5778 28.5167 69.5778 28.67V29.91C69.5778 29.97 69.6078 30 69.6678 30H70.8078C70.9411 30 71.0545 30.0467 71.1478 30.14C71.2478 30.2333 71.2978 30.3467 71.2978 30.48C71.2978 30.6133 71.2478 30.73 71.1478 30.83C71.0545 30.9233 70.9411 30.97 70.8078 30.97H69.6678C69.6078 30.97 69.5778 30.9967 69.5778 31.05V33.07C69.5778 33.5033 69.6245 33.7833 69.7178 33.91C69.8111 34.0367 70.0045 34.1 70.2978 34.1C70.4578 34.1 70.5778 34.0933 70.6578 34.08C70.7911 34.0667 70.9078 34.0967 71.0078 34.17C71.1078 34.2433 71.1578 34.3433 71.1578 34.47C71.1578 34.6167 71.1078 34.75 71.0078 34.87C70.9145 34.9833 70.7978 35.0467 70.6578 35.06C70.3645 35.0867 70.1445 35.1 69.9978 35.1C69.3511 35.1 68.8978 34.9633 68.6378 34.69C68.3778 34.41 68.2478 33.9133 68.2478 33.2V31.05C68.2478 30.9967 68.2178 30.97 68.1578 30.97H67.6778ZM73.5522 35C73.3989 35 73.2655 34.9433 73.1522 34.83C73.0389 34.7167 72.9822 34.5833 72.9822 34.43V30.37C72.9822 30.2167 73.0389 30.0833 73.1522 29.97C73.2655 29.8567 73.3989 29.8 73.5522 29.8H73.8122C73.9655 29.8 74.0989 29.8567 74.2122 29.97C74.3255 30.0833 74.3822 30.2167 74.3822 30.37V34.43C74.3822 34.5833 74.3255 34.7167 74.2122 34.83C74.0989 34.9433 73.9655 35 73.8122 35H73.5522ZM73.5522 28.7C73.3989 28.7 73.2655 28.6433 73.1522 28.53C73.0389 28.4167 72.9822 28.2833 72.9822 28.13V28.07C72.9822 27.9167 73.0389 27.7833 73.1522 27.67C73.2655 27.5567 73.3989 27.5 73.5522 27.5H73.8122C73.9655 27.5 74.0989 27.5567 74.2122 27.67C74.3255 27.7833 74.3822 27.9167 74.3822 28.07V28.13C74.3822 28.2833 74.3255 28.4167 74.2122 28.53C74.0989 28.6433 73.9655 28.7 73.8122 28.7H73.5522ZM79.1211 31.09C78.9278 30.81 78.6344 30.67 78.2411 30.67C77.8478 30.67 77.5511 30.81 77.3511 31.09C77.1578 31.3633 77.0611 31.8 77.0611 32.4C77.0611 33 77.1578 33.44 77.3511 33.72C77.5511 33.9933 77.8478 34.13 78.2411 34.13C78.6344 34.13 78.9278 33.9933 79.1211 33.72C79.3211 33.44 79.4211 33 79.4211 32.4C79.4211 31.8 79.3211 31.3633 79.1211 31.09ZM80.1011 34.4C79.6611 34.8667 79.0411 35.1 78.2411 35.1C77.4411 35.1 76.8178 34.8667 76.3711 34.4C75.9311 33.9267 75.7111 33.26 75.7111 32.4C75.7111 31.54 75.9311 30.8767 76.3711 30.41C76.8178 29.9367 77.4411 29.7 78.2411 29.7C79.0411 29.7 79.6611 29.9367 80.1011 30.41C80.5478 30.8767 80.7711 31.54 80.7711 32.4C80.7711 33.26 80.5478 33.9267 80.1011 34.4ZM82.3733 35C82.2199 35 82.0866 34.9433 81.9733 34.83C81.8599 34.7167 81.8033 34.5833 81.8033 34.43V30.37C81.8033 30.2167 81.8599 30.0833 81.9733 29.97C82.0866 29.8567 82.2199 29.8 82.3733 29.8H82.5033C82.6633 29.8 82.7966 29.8567 82.9033 29.97C83.0166 30.0767 83.0766 30.21 83.0833 30.37V30.44C83.0833 30.4467 83.0866 30.45 83.0933 30.45C83.0999 30.45 83.1066 30.4467 83.1133 30.44C83.5666 29.9467 84.0966 29.7 84.7033 29.7C85.3099 29.7 85.7499 29.8733 86.0233 30.22C86.3033 30.56 86.4433 31.13 86.4433 31.93V34.43C86.4433 34.5833 86.3866 34.7167 86.2733 34.83C86.1599 34.9433 86.0266 35 85.8733 35H85.7033C85.5499 35 85.4166 34.9433 85.3033 34.83C85.1966 34.7167 85.1433 34.5833 85.1433 34.43V32.03C85.1433 31.53 85.0766 31.19 84.9433 31.01C84.8166 30.8233 84.5866 30.73 84.2533 30.73C83.9799 30.73 83.7266 30.8467 83.4933 31.08C83.2599 31.3133 83.1433 31.5633 83.1433 31.83V34.43C83.1433 34.5833 83.0866 34.7167 82.9733 34.83C82.8599 34.9433 82.7266 35 82.5733 35H82.3733ZM90.8919 30.97C90.7585 30.97 90.6452 30.9233 90.5519 30.83C90.4585 30.73 90.4119 30.6133 90.4119 30.48C90.4119 30.3467 90.4585 30.2333 90.5519 30.14C90.6452 30.0467 90.7585 30 90.8919 30H91.4219C91.4819 30 91.5119 29.97 91.5119 29.91V29.67C91.5119 28.95 91.6685 28.4267 91.9819 28.1C92.2952 27.7667 92.7919 27.6 93.4719 27.6C93.6985 27.6 93.8952 27.6133 94.0619 27.64C94.2019 27.66 94.3152 27.73 94.4019 27.85C94.4952 27.9633 94.5419 28.0933 94.5419 28.24C94.5419 28.36 94.4919 28.4567 94.3919 28.53C94.2919 28.5967 94.1819 28.62 94.0619 28.6C93.9285 28.5867 93.8319 28.58 93.7719 28.58C93.4319 28.58 93.1985 28.6533 93.0719 28.8C92.9519 28.94 92.8919 29.2167 92.8919 29.63V29.91C92.8919 29.97 92.9219 30 92.9819 30H93.9619C94.0952 30 94.2085 30.0467 94.3019 30.14C94.3952 30.2333 94.4419 30.3467 94.4419 30.48C94.4419 30.6133 94.3952 30.73 94.3019 30.83C94.2085 30.9233 94.0952 30.97 93.9619 30.97H92.9819C92.9219 30.97 92.8919 30.9967 92.8919 31.05V34.43C92.8919 34.5833 92.8352 34.7167 92.7219 34.83C92.6085 34.9433 92.4752 35 92.3219 35H92.0719C91.9185 35 91.7852 34.9433 91.6719 34.83C91.5652 34.7167 91.5119 34.5833 91.5119 34.43V31.05C91.5119 30.9967 91.4819 30.97 91.4219 30.97H90.8919ZM98.5352 31.09C98.3418 30.81 98.0485 30.67 97.6552 30.67C97.2618 30.67 96.9652 30.81 96.7652 31.09C96.5718 31.3633 96.4752 31.8 96.4752 32.4C96.4752 33 96.5718 33.44 96.7652 33.72C96.9652 33.9933 97.2618 34.13 97.6552 34.13C98.0485 34.13 98.3418 33.9933 98.5352 33.72C98.7352 33.44 98.8352 33 98.8352 32.4C98.8352 31.8 98.7352 31.3633 98.5352 31.09ZM99.5152 34.4C99.0752 34.8667 98.4552 35.1 97.6552 35.1C96.8552 35.1 96.2318 34.8667 95.7852 34.4C95.3452 33.9267 95.1252 33.26 95.1252 32.4C95.1252 31.54 95.3452 30.8767 95.7852 30.41C96.2318 29.9367 96.8552 29.7 97.6552 29.7C98.4552 29.7 99.0752 29.9367 99.5152 30.41C99.9618 30.8767 100.185 31.54 100.185 32.4C100.185 33.26 99.9618 33.9267 99.5152 34.4ZM101.787 35C101.634 35 101.501 34.9433 101.387 34.83C101.274 34.7167 101.217 34.5833 101.217 34.43V30.37C101.217 30.2167 101.274 30.0833 101.387 29.97C101.501 29.8567 101.634 29.8 101.787 29.8H101.987C102.141 29.8 102.274 29.8567 102.387 29.97C102.501 30.0833 102.557 30.2167 102.557 30.37V30.79C102.557 30.7967 102.561 30.8 102.567 30.8C102.581 30.8 102.587 30.7967 102.587 30.79C102.781 30.5233 103.034 30.3067 103.347 30.14C103.661 29.9667 104.004 29.86 104.377 29.82C104.517 29.8067 104.637 29.8533 104.737 29.96C104.837 30.06 104.887 30.18 104.887 30.32C104.887 30.46 104.837 30.58 104.737 30.68C104.637 30.78 104.517 30.8367 104.377 30.85C103.197 30.9433 102.607 31.5433 102.607 32.65V34.43C102.607 34.5833 102.551 34.7167 102.437 34.83C102.324 34.9433 102.191 35 102.037 35H101.787ZM111.363 32.5C110.409 32.5 109.933 32.7933 109.933 33.38C109.933 33.5933 109.993 33.7667 110.113 33.9C110.239 34.0333 110.399 34.1 110.593 34.1C110.973 34.1 111.279 33.9833 111.513 33.75C111.746 33.51 111.863 33.1833 111.863 32.77V32.59C111.863 32.53 111.833 32.5 111.773 32.5H111.363ZM110.233 35.1C109.779 35.1 109.403 34.9533 109.103 34.66C108.809 34.36 108.663 33.9733 108.663 33.5C108.663 32.92 108.883 32.47 109.323 32.15C109.769 31.83 110.449 31.67 111.363 31.67H111.773C111.833 31.67 111.863 31.64 111.863 31.58V31.5C111.863 31.1933 111.789 30.98 111.643 30.86C111.496 30.7333 111.236 30.67 110.863 30.67C110.476 30.67 110.003 30.74 109.443 30.88C109.323 30.9133 109.213 30.8933 109.113 30.82C109.013 30.74 108.963 30.6367 108.963 30.51C108.963 30.3567 109.009 30.22 109.103 30.1C109.196 29.9733 109.316 29.8967 109.463 29.87C109.969 29.7567 110.446 29.7 110.893 29.7C111.746 29.7 112.343 29.8533 112.683 30.16C113.023 30.4667 113.193 31.0033 113.193 31.77V34.43C113.193 34.5833 113.136 34.7167 113.023 34.83C112.916 34.9433 112.786 35 112.633 35H112.523C112.363 35 112.226 34.9467 112.113 34.84C111.999 34.7267 111.939 34.59 111.933 34.43V34.29C111.933 34.2833 111.929 34.28 111.923 34.28C111.909 34.28 111.903 34.2833 111.903 34.29C111.496 34.83 110.939 35.1 110.233 35.1ZM115.388 35C115.235 35 115.101 34.9433 114.988 34.83C114.875 34.7167 114.818 34.5833 114.818 34.43V28.07C114.818 27.9167 114.875 27.7833 114.988 27.67C115.101 27.5567 115.235 27.5 115.388 27.5H115.648C115.801 27.5 115.935 27.5567 116.048 27.67C116.161 27.7833 116.218 27.9167 116.218 28.07V34.43C116.218 34.5833 116.161 34.7167 116.048 34.83C115.935 34.9433 115.801 35 115.648 35H115.388ZM118.572 35C118.418 35 118.285 34.9433 118.172 34.83C118.058 34.7167 118.002 34.5833 118.002 34.43V28.07C118.002 27.9167 118.058 27.7833 118.172 27.67C118.285 27.5567 118.418 27.5 118.572 27.5H118.832C118.985 27.5 119.118 27.5567 119.232 27.67C119.345 27.7833 119.402 27.9167 119.402 28.07V34.43C119.402 34.5833 119.345 34.7167 119.232 34.83C119.118 34.9433 118.985 35 118.832 35H118.572ZM124.152 30.97C124.019 30.97 123.906 30.9233 123.812 30.83C123.719 30.73 123.672 30.6133 123.672 30.48C123.672 30.3467 123.719 30.2333 123.812 30.14C123.906 30.0467 124.019 30 124.152 30H124.632C124.692 30 124.722 29.97 124.722 29.91V28.67C124.722 28.5167 124.776 28.3833 124.882 28.27C124.996 28.1567 125.129 28.1 125.282 28.1H125.482C125.636 28.1 125.769 28.1567 125.882 28.27C125.996 28.3833 126.052 28.5167 126.052 28.67V29.91C126.052 29.97 126.082 30 126.142 30H127.282C127.416 30 127.529 30.0467 127.622 30.14C127.722 30.2333 127.772 30.3467 127.772 30.48C127.772 30.6133 127.722 30.73 127.622 30.83C127.529 30.9233 127.416 30.97 127.282 30.97H126.142C126.082 30.97 126.052 30.9967 126.052 31.05V33.07C126.052 33.5033 126.099 33.7833 126.192 33.91C126.286 34.0367 126.479 34.1 126.772 34.1C126.932 34.1 127.052 34.0933 127.132 34.08C127.266 34.0667 127.382 34.0967 127.482 34.17C127.582 34.2433 127.632 34.3433 127.632 34.47C127.632 34.6167 127.582 34.75 127.482 34.87C127.389 34.9833 127.272 35.0467 127.132 35.06C126.839 35.0867 126.619 35.1 126.472 35.1C125.826 35.1 125.372 34.9633 125.112 34.69C124.852 34.41 124.722 33.9133 124.722 33.2V31.05C124.722 30.9967 124.692 30.97 124.632 30.97H124.152ZM129.767 35C129.613 35 129.48 34.9433 129.367 34.83C129.26 34.7167 129.207 34.5833 129.207 34.43V28.07C129.207 27.9167 129.26 27.7833 129.367 27.67C129.48 27.5567 129.613 27.5 129.767 27.5H129.967C130.12 27.5 130.253 27.5567 130.367 27.67C130.48 27.7833 130.537 27.9167 130.537 28.07V30.39C130.537 30.3967 130.54 30.4 130.547 30.4C130.553 30.4 130.56 30.3967 130.567 30.39C131.033 29.93 131.547 29.7 132.107 29.7C132.713 29.7 133.153 29.8733 133.427 30.22C133.7 30.5667 133.837 31.16 133.837 32V34.43C133.837 34.5833 133.78 34.7167 133.667 34.83C133.553 34.9433 133.42 35 133.267 35H133.107C132.953 35 132.82 34.9433 132.707 34.83C132.593 34.7167 132.537 34.5833 132.537 34.43V32.2C132.537 31.62 132.473 31.2367 132.347 31.05C132.227 30.8633 131.997 30.77 131.657 30.77C131.39 30.77 131.137 30.89 130.897 31.13C130.657 31.37 130.537 31.6267 130.537 31.9V34.43C130.537 34.5833 130.48 34.7167 130.367 34.83C130.253 34.9433 130.12 35 129.967 35H129.767ZM136.033 35C135.879 35 135.746 34.9433 135.633 34.83C135.519 34.7167 135.463 34.5833 135.463 34.43V30.37C135.463 30.2167 135.519 30.0833 135.633 29.97C135.746 29.8567 135.879 29.8 136.033 29.8H136.293C136.446 29.8 136.579 29.8567 136.693 29.97C136.806 30.0833 136.863 30.2167 136.863 30.37V34.43C136.863 34.5833 136.806 34.7167 136.693 34.83C136.579 34.9433 136.446 35 136.293 35H136.033ZM136.033 28.7C135.879 28.7 135.746 28.6433 135.633 28.53C135.519 28.4167 135.463 28.2833 135.463 28.13V28.07C135.463 27.9167 135.519 27.7833 135.633 27.67C135.746 27.5567 135.879 27.5 136.033 27.5H136.293C136.446 27.5 136.579 27.5567 136.693 27.67C136.806 27.7833 136.863 27.9167 136.863 28.07V28.13C136.863 28.2833 136.806 28.4167 136.693 28.53C136.579 28.6433 136.446 28.7 136.293 28.7H136.033ZM139.112 35C138.958 35 138.825 34.9433 138.712 34.83C138.598 34.7167 138.542 34.5833 138.542 34.43V30.37C138.542 30.2167 138.598 30.0833 138.712 29.97C138.825 29.8567 138.958 29.8 139.112 29.8H139.242C139.402 29.8 139.535 29.8567 139.642 29.97C139.755 30.0767 139.815 30.21 139.822 30.37V30.44C139.822 30.4467 139.825 30.45 139.832 30.45C139.838 30.45 139.845 30.4467 139.852 30.44C140.305 29.9467 140.835 29.7 141.442 29.7C142.048 29.7 142.488 29.8733 142.762 30.22C143.042 30.56 143.182 31.13 143.182 31.93V34.43C143.182 34.5833 143.125 34.7167 143.012 34.83C142.898 34.9433 142.765 35 142.612 35H142.442C142.288 35 142.155 34.9433 142.042 34.83C141.935 34.7167 141.882 34.5833 141.882 34.43V32.03C141.882 31.53 141.815 31.19 141.682 31.01C141.555 30.8233 141.325 30.73 140.992 30.73C140.718 30.73 140.465 30.8467 140.232 31.08C139.998 31.3133 139.882 31.5633 139.882 31.83V34.43C139.882 34.5833 139.825 34.7167 139.712 34.83C139.598 34.9433 139.465 35 139.312 35H139.112ZM146.628 30.7C145.895 30.7 145.528 31.2333 145.528 32.3C145.528 32.8533 145.625 33.2667 145.818 33.54C146.018 33.8133 146.288 33.95 146.628 33.95C146.928 33.95 147.185 33.8433 147.398 33.63C147.618 33.4167 147.728 33.1667 147.728 32.88V31.8C147.728 31.4933 147.618 31.2333 147.398 31.02C147.185 30.8067 146.928 30.7 146.628 30.7ZM146.208 34.95C145.622 34.95 145.142 34.7167 144.768 34.25C144.395 33.7767 144.208 33.1267 144.208 32.3C144.208 31.4733 144.385 30.8333 144.738 30.38C145.098 29.9267 145.588 29.7 146.208 29.7C146.522 29.7 146.798 29.7567 147.038 29.87C147.278 29.9833 147.515 30.1733 147.748 30.44C147.755 30.4467 147.762 30.45 147.768 30.45C147.775 30.45 147.778 30.4467 147.778 30.44V30.37C147.785 30.21 147.845 30.0767 147.958 29.97C148.072 29.8567 148.208 29.8 148.368 29.8H148.478C148.632 29.8 148.762 29.8567 148.868 29.97C148.982 30.0833 149.038 30.2167 149.038 30.37V34.6C149.038 36.4 148.138 37.3 146.338 37.3C146.018 37.3 145.682 37.2733 145.328 37.22C145.168 37.1933 145.035 37.1133 144.928 36.98C144.828 36.8533 144.778 36.7067 144.778 36.54C144.778 36.4067 144.832 36.3 144.938 36.22C145.052 36.1467 145.175 36.1267 145.308 36.16C145.628 36.24 145.962 36.28 146.308 36.28C146.802 36.28 147.162 36.15 147.388 35.89C147.615 35.6367 147.728 35.2167 147.728 34.63V34.32C147.728 34.3133 147.725 34.31 147.718 34.31C147.712 34.31 147.705 34.3133 147.698 34.32C147.298 34.74 146.802 34.95 146.208 34.95ZM152.207 32.9C151.507 32.7467 151.007 32.5367 150.707 32.27C150.413 32.0033 150.267 31.6567 150.267 31.23C150.267 30.75 150.443 30.3767 150.797 30.11C151.157 29.8367 151.687 29.7 152.387 29.7C152.827 29.7 153.263 29.74 153.697 29.82C153.843 29.8467 153.96 29.92 154.047 30.04C154.14 30.1533 154.187 30.2867 154.187 30.44C154.187 30.5667 154.137 30.67 154.037 30.75C153.937 30.8233 153.823 30.8433 153.697 30.81C153.323 30.7167 152.93 30.67 152.517 30.67C151.917 30.67 151.617 30.8367 151.617 31.17C151.617 31.33 151.673 31.4633 151.787 31.57C151.9 31.6767 152.093 31.76 152.367 31.82C153.133 31.9733 153.657 32.18 153.937 32.44C154.223 32.7 154.367 33.08 154.367 33.58C154.367 34.06 154.187 34.4333 153.827 34.7C153.467 34.9667 152.943 35.1 152.257 35.1C151.81 35.1 151.353 35.0467 150.887 34.94C150.74 34.9067 150.62 34.83 150.527 34.71C150.433 34.5833 150.387 34.44 150.387 34.28C150.387 34.1533 150.437 34.0567 150.537 33.99C150.643 33.9233 150.757 33.9067 150.877 33.94C151.31 34.06 151.72 34.12 152.107 34.12C152.713 34.12 153.017 33.94 153.017 33.58C153.017 33.4067 152.957 33.27 152.837 33.17C152.723 33.07 152.513 32.98 152.207 32.9ZM159.754 31.72V33.08C159.754 33.3467 159.867 33.5833 160.094 33.79C160.327 33.9967 160.597 34.1 160.904 34.1C161.257 34.1 161.537 33.9567 161.744 33.67C161.951 33.3833 162.054 32.96 162.054 32.4C162.054 31.2667 161.671 30.7 160.904 30.7C160.597 30.7 160.327 30.8033 160.094 31.01C159.867 31.2167 159.754 31.4533 159.754 31.72ZM159.004 37.2C158.851 37.2 158.717 37.1433 158.604 37.03C158.491 36.9167 158.434 36.7833 158.434 36.63V30.37C158.434 30.2167 158.491 30.0833 158.604 29.97C158.717 29.8567 158.851 29.8 159.004 29.8H159.124C159.284 29.8 159.421 29.8567 159.534 29.97C159.647 30.0767 159.707 30.21 159.714 30.37V30.44C159.714 30.4467 159.717 30.45 159.724 30.45C159.731 30.45 159.737 30.4467 159.744 30.44C159.984 30.1733 160.224 29.9833 160.464 29.87C160.704 29.7567 160.984 29.7 161.304 29.7C161.931 29.7 162.431 29.9367 162.804 30.41C163.177 30.8767 163.364 31.54 163.364 32.4C163.364 33.2333 163.167 33.8933 162.774 34.38C162.387 34.86 161.897 35.1 161.304 35.1C160.724 35.1 160.221 34.89 159.794 34.47C159.787 34.4633 159.781 34.46 159.774 34.46C159.767 34.46 159.764 34.4633 159.764 34.47V36.63C159.764 36.7833 159.707 36.9167 159.594 37.03C159.487 37.1433 159.357 37.2 159.204 37.2H159.004ZM166.658 30.63C166.318 30.63 166.054 30.7267 165.868 30.92C165.688 31.1067 165.574 31.41 165.528 31.83C165.528 31.8833 165.554 31.91 165.608 31.91H167.568C167.621 31.91 167.648 31.8833 167.648 31.83C167.621 31.03 167.291 30.63 166.658 30.63ZM166.908 35.1C166.034 35.1 165.361 34.8733 164.888 34.42C164.421 33.96 164.188 33.2867 164.188 32.4C164.188 31.52 164.398 30.85 164.818 30.39C165.238 29.93 165.844 29.7 166.638 29.7C168.118 29.7 168.878 30.54 168.918 32.22C168.924 32.38 168.868 32.5133 168.748 32.62C168.628 32.7267 168.488 32.78 168.328 32.78H165.598C165.538 32.78 165.514 32.81 165.528 32.87C165.574 33.3167 165.721 33.6433 165.968 33.85C166.221 34.05 166.588 34.15 167.068 34.15C167.368 34.15 167.701 34.1 168.068 34C168.188 33.9667 168.298 33.9867 168.398 34.06C168.504 34.1333 168.558 34.2333 168.558 34.36C168.558 34.5133 168.511 34.65 168.418 34.77C168.331 34.8833 168.214 34.9533 168.068 34.98C167.694 35.06 167.308 35.1 166.908 35.1ZM170.129 30.97C169.996 30.97 169.882 30.9233 169.789 30.83C169.696 30.73 169.649 30.6133 169.649 30.48C169.649 30.3467 169.696 30.2333 169.789 30.14C169.882 30.0467 169.996 30 170.129 30H170.609C170.669 30 170.699 29.97 170.699 29.91V28.67C170.699 28.5167 170.752 28.3833 170.859 28.27C170.972 28.1567 171.106 28.1 171.259 28.1H171.459C171.612 28.1 171.746 28.1567 171.859 28.27C171.972 28.3833 172.029 28.5167 172.029 28.67V29.91C172.029 29.97 172.059 30 172.119 30H173.259C173.392 30 173.506 30.0467 173.599 30.14C173.699 30.2333 173.749 30.3467 173.749 30.48C173.749 30.6133 173.699 30.73 173.599 30.83C173.506 30.9233 173.392 30.97 173.259 30.97H172.119C172.059 30.97 172.029 30.9967 172.029 31.05V33.07C172.029 33.5033 172.076 33.7833 172.169 33.91C172.262 34.0367 172.456 34.1 172.749 34.1C172.909 34.1 173.029 34.0933 173.109 34.08C173.242 34.0667 173.359 34.0967 173.459 34.17C173.559 34.2433 173.609 34.3433 173.609 34.47C173.609 34.6167 173.559 34.75 173.459 34.87C173.366 34.9833 173.249 35.0467 173.109 35.06C172.816 35.0867 172.596 35.1 172.449 35.1C171.802 35.1 171.349 34.9633 171.089 34.69C170.829 34.41 170.699 33.9133 170.699 33.2V31.05C170.699 30.9967 170.669 30.97 170.609 30.97H170.129ZM180.205 35.1C179.378 35.1 178.742 34.8733 178.295 34.42C177.848 33.96 177.625 33.2867 177.625 32.4C177.625 31.5267 177.838 30.86 178.265 30.4C178.698 29.9333 179.312 29.7 180.105 29.7C180.458 29.7 180.798 29.7233 181.125 29.77C181.278 29.79 181.405 29.86 181.505 29.98C181.605 30.1 181.655 30.24 181.655 30.4C181.655 30.5333 181.602 30.64 181.495 30.72C181.395 30.8 181.278 30.8267 181.145 30.8C180.885 30.7467 180.595 30.72 180.275 30.72C179.855 30.72 179.542 30.8533 179.335 31.12C179.128 31.3867 179.025 31.8133 179.025 32.4C179.025 33 179.135 33.43 179.355 33.69C179.575 33.95 179.915 34.08 180.375 34.08C180.702 34.08 180.985 34.05 181.225 33.99C181.352 33.9567 181.465 33.98 181.565 34.06C181.672 34.14 181.725 34.2433 181.725 34.37C181.725 34.53 181.675 34.67 181.575 34.79C181.482 34.91 181.358 34.9833 181.205 35.01C180.865 35.07 180.532 35.1 180.205 35.1ZM185.503 32.5C184.55 32.5 184.073 32.7933 184.073 33.38C184.073 33.5933 184.133 33.7667 184.253 33.9C184.38 34.0333 184.54 34.1 184.733 34.1C185.113 34.1 185.42 33.9833 185.653 33.75C185.887 33.51 186.003 33.1833 186.003 32.77V32.59C186.003 32.53 185.973 32.5 185.913 32.5H185.503ZM184.373 35.1C183.92 35.1 183.543 34.9533 183.243 34.66C182.95 34.36 182.803 33.9733 182.803 33.5C182.803 32.92 183.023 32.47 183.463 32.15C183.91 31.83 184.59 31.67 185.503 31.67H185.913C185.973 31.67 186.003 31.64 186.003 31.58V31.5C186.003 31.1933 185.93 30.98 185.783 30.86C185.637 30.7333 185.377 30.67 185.003 30.67C184.617 30.67 184.143 30.74 183.583 30.88C183.463 30.9133 183.353 30.8933 183.253 30.82C183.153 30.74 183.103 30.6367 183.103 30.51C183.103 30.3567 183.15 30.22 183.243 30.1C183.337 29.9733 183.457 29.8967 183.603 29.87C184.11 29.7567 184.587 29.7 185.033 29.7C185.887 29.7 186.483 29.8533 186.823 30.16C187.163 30.4667 187.333 31.0033 187.333 31.77V34.43C187.333 34.5833 187.277 34.7167 187.163 34.83C187.057 34.9433 186.927 35 186.773 35H186.663C186.503 35 186.367 34.9467 186.253 34.84C186.14 34.7267 186.08 34.59 186.073 34.43V34.29C186.073 34.2833 186.07 34.28 186.063 34.28C186.05 34.28 186.043 34.2833 186.043 34.29C185.637 34.83 185.08 35.1 184.373 35.1ZM189.229 35C189.075 35 188.942 34.9433 188.829 34.83C188.715 34.7167 188.659 34.5833 188.659 34.43V30.37C188.659 30.2167 188.715 30.0833 188.829 29.97C188.942 29.8567 189.075 29.8 189.229 29.8H189.429C189.582 29.8 189.715 29.8567 189.829 29.97C189.942 30.0833 189.999 30.2167 189.999 30.37V30.79C189.999 30.7967 190.002 30.8 190.009 30.8C190.022 30.8 190.029 30.7967 190.029 30.79C190.222 30.5233 190.475 30.3067 190.789 30.14C191.102 29.9667 191.445 29.86 191.819 29.82C191.959 29.8067 192.079 29.8533 192.179 29.96C192.279 30.06 192.329 30.18 192.329 30.32C192.329 30.46 192.279 30.58 192.179 30.68C192.079 30.78 191.959 30.8367 191.819 30.85C190.639 30.9433 190.049 31.5433 190.049 32.65V34.43C190.049 34.5833 189.992 34.7167 189.879 34.83C189.765 34.9433 189.632 35 189.479 35H189.229ZM195.437 30.63C195.097 30.63 194.834 30.7267 194.647 30.92C194.467 31.1067 194.354 31.41 194.307 31.83C194.307 31.8833 194.334 31.91 194.387 31.91H196.347C196.4 31.91 196.427 31.8833 196.427 31.83C196.4 31.03 196.07 30.63 195.437 30.63ZM195.687 35.1C194.814 35.1 194.14 34.8733 193.667 34.42C193.2 33.96 192.967 33.2867 192.967 32.4C192.967 31.52 193.177 30.85 193.597 30.39C194.017 29.93 194.624 29.7 195.417 29.7C196.897 29.7 197.657 30.54 197.697 32.22C197.704 32.38 197.647 32.5133 197.527 32.62C197.407 32.7267 197.267 32.78 197.107 32.78H194.377C194.317 32.78 194.294 32.81 194.307 32.87C194.354 33.3167 194.5 33.6433 194.747 33.85C195 34.05 195.367 34.15 195.847 34.15C196.147 34.15 196.48 34.1 196.847 34C196.967 33.9667 197.077 33.9867 197.177 34.06C197.284 34.1333 197.337 34.2333 197.337 34.36C197.337 34.5133 197.29 34.65 197.197 34.77C197.11 34.8833 196.994 34.9533 196.847 34.98C196.474 35.06 196.087 35.1 195.687 35.1Z" fill="black"/>
</svg>
